<svg xmlns="http://www.w3.org/2000/svg" viewBox="0 0 2365.92 949.06"><defs><style>.cls-1{fill:#bae3f8;}.cls-2{fill:#56a2ae;}.cls-3{fill:#ad7f35;stroke:#683c11;}.cls-3,.cls-5,.cls-7,.cls-9{stroke-miterlimit:10;}.cls-4{fill:#683c11;}.cls-5{fill:#7f2110;stroke:#fcea10;}.cls-6{fill:#dedc00;}.cls-7{fill:#386d3f;stroke:#949597;}.cls-8{fill:#949597;}.cls-9{fill:#376577;stroke:#7aa1c4;}.cls-10{fill:#b1d074;}.cls-11{fill:#d9effb;}</style></defs><title>Asset 5sky</title><g id="Layer_2" data-name="Layer 2"><g id="achtergrond"><rect class="cls-1" width="2365.92" height="677.55"/></g><g id="Layer_5" data-name="Layer 5"><rect class="cls-2" x="2091.73" y="240.37" width="5.14" height="28.52"/><rect class="cls-2" x="1976.09" y="268.9" width="120.78" height="408.65"/><polygon class="cls-2" points="2036.34 198.02 2068.03 219.2 2099.72 240.38 2036.34 240.38 1972.95 240.38 2004.64 219.2 2036.34 198.02"/><rect class="cls-2" x="1976.09" y="240.37" width="5.14" height="28.52"/><polygon class="cls-3" points="2068.48 514.9 2036.48 446.02 2004.48 514.9 2004.48 268.9 2068.48 268.9 2068.48 514.9"/><path class="cls-4" d="M2017.19,388h14.69l-4.25,4.16v13.5a15.65,15.65,0,0,0,1.69.19V392.48l3.41-3.37.63.56-3.22,3.19v13l1,.09q2.41.22,4.66.22a43,43,0,0,0,5.59-.31V391.51l-3.81-3.5H2052l-4.31,4.16v32.56l3.78,3.38h-14.37l4.28-3.66V411.2a23.24,23.24,0,0,1-5.41.63q-2.62,0-5.44-.28l-.44,0v13.22l5.16,5.94h-16.16l-.81-.84h15.25l-4.25-4.66V410.79l.91.06q4.13.31,6,.31a15.16,15.16,0,0,0,5.22-.81v-1.12a47,47,0,0,1-6.84.44q-2.09,0-3.06-.09l-3.16-.28-.72-.06v15.5l4,3.38h-14.44l4.19-3.66V410.79a5,5,0,0,0-4.19,2.06l-.66-.31a6.61,6.61,0,0,1,4.84-2.53v-1.16a6.59,6.59,0,0,0-5.53,2.66l-.47-.31q1.84-4.5,6-5.31V391.82Zm36.16,1.75-3.19,3.09v31.88l5.19,5.94h-16.22l-.78-.84h15.22l-4.19-4.72V392.54l3.47-3.44Z"/><rect class="cls-2" x="999.29" y="240.37" width="5.14" height="28.52"/><rect class="cls-2" x="883.65" y="268.9" width="120.78" height="408.65"/><polygon class="cls-2" points="943.89 198.02 975.59 219.2 1007.28 240.38 943.89 240.38 880.51 240.38 912.2 219.2 943.89 198.02"/><rect class="cls-2" x="883.65" y="240.37" width="5.14" height="28.52"/><polygon class="cls-5" points="975.89 514.9 943.89 446.02 911.89 514.9 911.89 268.9 975.89 268.9 975.89 514.9"/><path class="cls-6" d="M958,385.77l-5.84,11.5a12.49,12.49,0,0,0-3.08-7.5,8.83,8.83,0,0,0-6.64-2.59,10.6,10.6,0,0,0-9.14,4.56Q930,396.3,930,404.52q0,18.09,14.81,18.09h5V406.39H942a16.72,16.72,0,0,1-3.67-.28,5,5,0,0,1-2.14-1.22v-.78a6.11,6.11,0,0,0,2.25,1.11,17.67,17.67,0,0,0,3.66.27h7.78V403.8H939.76q-4.66,0-4.66-3.37a3.4,3.4,0,0,1,.78-2.25,2.37,2.37,0,0,1,1.88-.94,2,2,0,0,1,1.42.59,1.9,1.9,0,0,1,.61,1.41q0,1.38-1,1.59L938,401q-.37.09-.37.31,0,.41,1,.41h21.69l-4.31,4.22v15.41l4,3.44H940.94a19,19,0,0,1-6.56-1,16.18,16.18,0,0,1-5.25-3.44q-6.28-5.75-6.28-15.41,0-10,5.94-15.56a17.31,17.31,0,0,1,12.31-4.91,28.2,28.2,0,0,1,7.31,1.13,27.41,27.41,0,0,0,5.56,1.16A9,9,0,0,0,958,385.77Zm-8.12,6.72-.56-.41a11.55,11.55,0,0,0-6.5-2.53,8.51,8.51,0,0,0-6.16,2.53,10.8,10.8,0,0,0-2.7,4.91,31.32,31.32,0,0,0-.83,8,28.85,28.85,0,0,0,1.25,9.66,14.14,14.14,0,0,0,4.59,6V421a12.26,12.26,0,0,1-5.22-6.08,28.93,28.93,0,0,1-1.59-10.64q0-7.41,2.78-11.52a8.9,8.9,0,0,1,7.81-4.11,8.55,8.55,0,0,1,7.13,3.63Zm11.88,11-3.22,3.22v14.66l5.19,6-12.41-.09-11.25.13a16,16,0,0,1-1.62-.06,8.15,8.15,0,0,1-4-1.72h.66a14.7,14.7,0,0,0,5.81.94l1.56,0h19.47l-4.31-4.78V406.39l3.59-3.62Zm-1.87-15.75-5.34,10.5-.75-.34,5.38-10.53Z"/><rect class="cls-2" x="1543.37" y="240.37" width="5.14" height="28.52"/><rect class="cls-2" x="1427.73" y="268.9" width="120.78" height="408.65"/><polygon class="cls-2" points="1487.98 198.02 1519.67 219.2 1551.37 240.38 1487.98 240.38 1424.59 240.38 1456.29 219.2 1487.98 198.02"/><rect class="cls-2" x="1427.73" y="240.37" width="5.14" height="28.52"/><polygon class="cls-7" points="1519.98 514.9 1487.98 446.02 1455.98 514.9 1455.98 268.9 1519.98 268.9 1519.98 514.9"/><path class="cls-8" d="M1500.62,383.69a20.85,20.85,0,0,0-2.59,4.56,62.27,62.27,0,0,1-2.53,5.75l-.16.19-.19-.53a27.69,27.69,0,0,0-1.44-3.91,7.33,7.33,0,0,0-1.69-2.09,9.46,9.46,0,0,0-6.47-2.53A8.37,8.37,0,0,0,1480,387a5.84,5.84,0,0,0-2.22,4.67q0,5.25,7.91,7.16l5.28,1.28q11.28,2.72,11.28,11.91a11.14,11.14,0,0,1-3.86,8.61,13.72,13.72,0,0,1-9.55,3.48,33.37,33.37,0,0,1-8-1.09l-3.66-.91a16.39,16.39,0,0,0-3.66-.53,7.65,7.65,0,0,0-3.94,1.22l-.25-.44a42,42,0,0,0,5.44-11.12l.56.16a11.43,11.43,0,0,0,3.94,7.63,13,13,0,0,0,8.59,2.72,10.5,10.5,0,0,0,6.66-1.94,6.29,6.29,0,0,0,2.47-5.22,7.43,7.43,0,0,0-3.44-6.25q-2.47-1.75-10.12-3.25-5.91-1.16-8.56-3.84a11.28,11.28,0,0,1,.89-15.48,13.58,13.58,0,0,1,9.23-3.08,33.42,33.42,0,0,1,8.53,1.31,14.3,14.3,0,0,0,3.38.63,6.7,6.7,0,0,0,3.34-1.06Zm0,19.94a10.46,10.46,0,0,1,4.25,8.81,13.06,13.06,0,0,1-4.62,10.11,16.27,16.27,0,0,1-11.25,4.14,24.9,24.9,0,0,1-6.09-.69l-5-1.22a15.46,15.46,0,0,0-3.75-.44,7.5,7.5,0,0,0-3.28.72l-.37-.91a7.83,7.83,0,0,1,3.31-.75,19.06,19.06,0,0,1,4.28.56l4.81,1.16a26,26,0,0,0,6.06.69,15.27,15.27,0,0,0,10.64-4,12.55,12.55,0,0,0,4.39-9.64,11.85,11.85,0,0,0-3.37-8.37Zm-26.16-1.12,1.06.59q1,1.84,6,3.06l5,1.25a34.47,34.47,0,0,1,6.83,2.2,5.18,5.18,0,0,1,2.42,2.8l-.22.13a9,9,0,0,0-3-2.37,39.55,39.55,0,0,0-6.3-1.84,49,49,0,0,1-9.06-2.7A4.63,4.63,0,0,1,1474.46,402.5Zm3.91,10.13a10.66,10.66,0,0,0,6.19,8v.25q-5.81-1.69-7-8.06Zm15.06-21.41q-3.44-3.66-7.37-3.66a5.74,5.74,0,0,0-3.94,1.38,4.46,4.46,0,0,0-1.56,3.5q0,2.31,3.16,4.75l.25.16-.16.25q-4.12-1.84-4.12-5.34a5,5,0,0,1,1.75-4,6.68,6.68,0,0,1,4.56-1.53,9.4,9.4,0,0,1,4.7,1.14,6.87,6.87,0,0,1,3,3.2Zm9.13-6.22-.28.47a44.63,44.63,0,0,0-2.19,4.13q-2.19,4.59-2.47,5.13l-.16.22-.75-.31.13-.28q.91-2.06,2.63-5.37l2.13-4.12.16-.25Z"/><rect class="cls-2" x="379.93" y="239.67" width="5.14" height="28.52"/><rect class="cls-2" x="495.57" y="239.67" width="5.14" height="28.52"/><rect class="cls-2" x="379.93" y="268.19" width="120.78" height="408.65"/><polygon class="cls-2" points="440.17 197.31 471.87 218.49 503.56 239.67 440.17 239.67 376.79 239.67 408.48 218.49 440.17 197.31"/><polygon class="cls-9" points="472.17 514.19 440.17 445.31 408.17 514.19 408.17 268.19 472.17 268.19 472.17 514.19"/><path class="cls-9" d="M424.94,387.72a31.32,31.32,0,0,1,15.94-4.28,19.25,19.25,0,0,1,10.92,2.88q4.3,2.88,4.3,7.31a8.81,8.81,0,0,1-2.81,6.42,16.42,16.42,0,0,1-7.69,4,55.39,55.39,0,0,0,5.86,11.56,37.48,37.48,0,0,0,7.42,8.63l-.47.16a41.21,41.21,0,0,0-9.12,4.5l-.47.31-.16-1a89.87,89.87,0,0,0-5.59-20.5l-.12-.31a22.8,22.8,0,0,1-5.78,1.59l-.25,0v11.69l5.5,5.88H426.25l-.5-.84h14.88L436.09,421V408.37l.66-.09a20.79,20.79,0,0,0,6-1.41q-.19-.37-.22-.47l-.31-.91q0-.09-.16-.37a55.16,55.16,0,0,1-7.31,1.22l-.34.06v13.94l3.56,3.72H424.13l4.06-3.72v-10.5l-.25,0a32,32,0,0,0-3.28.91l-.25.09-.28-.62a18.38,18.38,0,0,1,2.16-.72l1.66-.41.25-.06v-1.62a16.84,16.84,0,0,0-4.59.81l-.34.13a15,15,0,0,1,.63-2q.06-.12.44-1.41l.09-.28q1.41.09,2.19.09a12.12,12.12,0,0,0,1.56-.09V389.28a18.82,18.82,0,0,0-3-1.47Zm9.44-.81v16.84a9.07,9.07,0,0,0,1.72-.16V388.22a15.83,15.83,0,0,1,4.13-.47q6.09,0,8.28,4a16.7,16.7,0,0,0-4.06-2.58,11.22,11.22,0,0,0-4.19-.7,13.32,13.32,0,0,0-3.34.38v14.75l.34-.06q6.16-1.12,9.14-3.55a7.73,7.73,0,0,0,3-6.3,7.18,7.18,0,0,0-2.69-5.73,10.16,10.16,0,0,0-6.78-2.27A11.49,11.49,0,0,0,434.38,386.9Zm15.09,18.75a37.42,37.42,0,0,0,7,12.59,33,33,0,0,0,7.91,6.91A49.38,49.38,0,0,0,450.91,431l-.28.19-.62-.5a44.53,44.53,0,0,1,12.72-5.75q-9-6-14.16-19.19l-.19-.53q9.56-3.62,9.56-11.06a12.14,12.14,0,0,0-2.47-6.69,9.46,9.46,0,0,1,3.16,7.31Q458.63,401.94,449.47,405.65Z"/></g><g id="voorgrond"><rect class="cls-10" y="677.55" width="2365.92" height="271.51"/></g><g id="Layer_3" data-name="Layer 3"><path class="cls-11" d="M1203.79,176.84s-18.67-9.83-34.67-.33-12.67,32.67-12.67,32.67-20.17,7.5-22,27,13.33,27.33,21.33,29.67,132.67,1.33,141.67,0,23.67-6.17,23.67-29.33-29.33-27.67-29.33-27.67,11.17-45.17-27.67-58.67S1203.79,176.84,1203.79,176.84Z"/><path class="cls-11" d="M1737.57,135.37s-24,7-22,30.67,22,23.67,22,23.67,4.67,20,30.33,27.33a43.9,43.9,0,0,0,42.33-10s18,23.6,48.67,12.67,27-31.33,27-31.33,16.33-.67,16.33-26.33-25-26.67-25-26.67,13.33-31.55-10-46.44-41.67,3.77-41.67,3.77S1813.24,72.37,1791.91,74s-27.33,23.67-27.33,23.67-14.33.33-23,12.33S1737.57,135.37,1737.57,135.37Z"/><path class="cls-11" d="M633.38,38.5c-47,0-53,36-53,36S566,71.5,557,83.17a31.32,31.32,0,0,0-6.33,24,27.63,27.63,0,0,0-12,28.33c3.33,19.33,12.67,19.78,21,22s131.33,5,144.33,0,16.33-11,19-24.67-12-27.69-12-27.69,3.67-19.65-6.67-27-23.67-3-23.67-3S680.38,38.5,633.38,38.5Z"/></g></g></svg>